<svg width="100" height="21" viewBox="0 0 100 21" fill="none" xmlns="http://www.w3.org/2000/svg">
<path fill-rule="evenodd" clip-rule="evenodd" d="M27.3462 0C29.251 0 30.7462 0.6 31.8319 1.8C32.9367 2.98095 33.4891 4.64762 33.4891 6.8V15.1429H31.0605L30.3748 12.8C29.9557 13.5048 29.3367 14.1238 28.5176 14.6571C27.6986 15.1714 26.7272 15.4286 25.6033 15.4286C24.6129 15.4286 23.7176 15.2286 22.9176 14.8286C22.1367 14.4286 21.5272 13.8667 21.0891 13.1429C20.651 12.419 20.4319 11.6 20.4319 10.6857C20.4319 9.27619 20.9843 8.15238 22.0891 7.31429C23.2129 6.45714 24.8414 6.02857 26.9748 6.02857H30.1748C30.0986 5.03809 29.7938 4.25714 29.2605 3.68571C28.7462 3.09524 28.051 2.8 27.1748 2.8C26.47 2.8 25.8605 2.97143 25.3462 3.31429C24.8319 3.65714 24.451 4.07619 24.2033 4.57143L21.1748 4.05714C21.5367 2.8 22.2795 1.80952 23.4033 1.08571C24.5462 0.361905 25.8605 0 27.3462 0ZM26.3748 12.6571C27.5176 12.6571 28.4414 12.2857 29.1462 11.5429C29.851 10.8 30.2033 9.81905 30.2033 8.6H27.0891C24.8605 8.6 23.7462 9.24762 23.7462 10.5429C23.7462 11.1905 23.9843 11.7048 24.4605 12.0857C24.9367 12.4667 25.5748 12.6571 26.3748 12.6571ZM37.0536 0.285714V21H40.3393V12.8857C40.9298 13.6095 41.6917 14.219 42.625 14.7143C43.5583 15.1905 44.625 15.4286 45.825 15.4286C47.2155 15.4286 48.4631 15.1048 49.5679 14.4571C50.6726 13.7905 51.5298 12.8762 52.1393 11.7143C52.7679 10.5333 53.0821 9.2 53.0821 7.71429C53.0821 6.22857 52.7679 4.90476 52.1393 3.74286C51.5298 2.5619 50.6726 1.64762 49.5679 1C48.4631 0.333333 47.2155 0 45.825 0C44.5869 0 43.4917 0.266666 42.5393 0.799999C41.5869 1.31429 40.806 1.94286 40.1964 2.68571L39.5107 0.285714H37.0536ZM48.3679 11.1714C47.5107 12.0476 46.3964 12.4857 45.025 12.4857C43.6345 12.4857 42.5012 12.0476 41.625 11.1714C40.7679 10.2762 40.3393 9.12381 40.3393 7.71429C40.3393 6.30476 40.7679 5.1619 41.625 4.28571C42.5012 3.39048 43.6345 2.94286 45.025 2.94286C46.3964 2.94286 47.5107 3.39048 48.3679 4.28571C49.225 5.1619 49.6536 6.30476 49.6536 7.71429C49.6536 9.12381 49.225 10.2762 48.3679 11.1714ZM74.0632 14.4571C75.2441 15.1048 76.5775 15.4286 78.0632 15.4286C79.6822 15.4286 81.1489 15.019 82.4632 14.2C83.7775 13.381 84.7013 12.219 85.2346 10.7143L82.1489 10.2C81.806 10.8667 81.2917 11.4095 80.606 11.8286C79.9203 12.2286 79.1394 12.4286 78.2632 12.4286C76.9298 12.4286 75.8441 11.9905 75.006 11.1143C74.1679 10.2381 73.7489 9.10476 73.7489 7.71429C73.7489 6.32381 74.1679 5.19048 75.006 4.31429C75.8441 3.4381 76.9298 3 78.2632 3C79.1013 3 79.8536 3.2 80.5203 3.6C81.206 4 81.7108 4.52381 82.0346 5.17143L85.1203 4.65714C84.587 3.17143 83.6822 2.02857 82.406 1.22857C81.1489 0.409524 79.7013 0 78.0632 0C76.5775 0 75.2441 0.333333 74.0632 1C72.8822 1.64762 71.9584 2.5619 71.2917 3.74286C70.6441 4.90476 70.3203 6.22857 70.3203 7.71429C70.3203 9.2 70.6441 10.5333 71.2917 11.7143C71.9584 12.8762 72.8822 13.7905 74.0632 14.4571ZM99.4707 15.1429V0.285714H92.8708C91.766 0.285714 90.7755 0.504762 89.8993 0.942858C89.0231 1.3619 88.3374 1.95238 87.8422 2.71429C87.3469 3.47619 87.0993 4.34286 87.0993 5.31429C87.0993 6.36191 87.3755 7.28571 87.9279 8.08571C88.4803 8.88571 89.2422 9.47619 90.2136 9.85714L86.6708 15.1429H90.4136L93.5565 10.3714H96.185V15.1429H99.4707ZM96.185 3.14286V7.51428H92.8708C92.1279 7.51428 91.5279 7.31429 91.0708 6.91429C90.6136 6.51429 90.385 5.98095 90.385 5.31429C90.385 4.66667 90.6136 4.14286 91.0708 3.74286C91.5279 3.34286 92.1279 3.14286 92.8708 3.14286H96.185ZM65.9565 0.285714H69.2993L63.2136 17C62.6993 18.4095 62.0327 19.4286 61.2136 20.0571C60.4136 20.6857 59.3374 21 57.985 21H55.7279L55.4422 18H58.2136C58.766 18 59.185 17.8762 59.4708 17.6286C59.7755 17.4 60.0327 16.9905 60.2422 16.4L60.4136 15.9429L53.8136 0.285714H57.3279L61.6993 11H62.1565L65.9565 0.285714ZM0 15.1429H3.14286V4.11429H3.6L7.31428 15.1429H10.0857L13.9714 4.11429H14.4286V15.1429H17.5714V0.285714H12.5714L9 10.4857H8.54286L5.11428 0.285714H0V15.1429Z" fill="white"/>
</svg>
