<svg width="11" height="18" viewBox="0 0 11 18" fill="none" xmlns="http://www.w3.org/2000/svg">
<path d="M7.24714 12.9023L9.90059 15.464C10.4442 15.9876 10.4442 16.838 9.90059 17.3622C9.35757 17.8863 8.47745 17.8863 7.935 17.3622L5.32614 14.8449L2.71955 17.3622C2.44776 17.624 2.09162 17.755 1.73548 17.755C1.3799 17.755 1.02433 17.624 0.752539 17.3622C0.209523 16.838 0.209523 15.9881 0.751971 15.464L3.4057 12.9023C2.43952 12.6899 1.50771 12.3203 0.649445 11.8006C-7.1612e-05 11.4052 -0.195182 10.577 0.214067 9.94953C0.622181 9.32118 1.48044 9.13202 2.13109 9.52734C4.07425 10.7073 6.57746 10.7075 8.52175 9.52734C9.1724 9.13202 10.0304 9.32118 10.4393 9.94953C10.8486 10.5765 10.6529 11.4052 10.0034 11.8006C9.14514 12.3209 8.21332 12.6899 7.24714 12.9023Z" fill="white" fill-opacity="0.8"/>
<path fill-rule="evenodd" clip-rule="evenodd" d="M0.568359 4.58207C0.568359 7.10805 2.69725 9.16277 5.31492 9.16277C7.93315 9.16277 10.0615 7.10805 10.0615 4.58207C10.0615 2.05527 7.93315 0 5.31492 0C2.69725 0 0.568359 2.05527 0.568359 4.58207ZM7.28015 4.58158C7.28015 3.53544 6.3986 2.68477 5.31484 2.68477C4.23193 2.68477 3.34953 3.53544 3.34953 4.58158C3.34953 5.6269 4.23193 6.47812 5.31484 6.47812C6.3986 6.47812 7.28015 5.6269 7.28015 4.58158Z" fill="white" fill-opacity="0.8"/>
</svg>
