<svg width="19" height="11" viewBox="0 0 19 11" fill="none" xmlns="http://www.w3.org/2000/svg">
<path fill-rule="evenodd" clip-rule="evenodd" d="M18.2795 0.699502C18.4182 0.30493 18.2795 0.0179495 17.6649 0.0179495H15.6228C15.1073 0.0179495 14.8694 0.269031 14.7306 0.538115C14.7306 0.538115 13.6798 2.8339 12.2127 4.32255C11.7369 4.75302 11.5188 4.89651 11.2611 4.89651C11.1223 4.89651 10.9439 4.75302 10.9439 4.35845V0.681552C10.9439 0.215235 10.7853 0 10.3491 0H7.13733C6.82011 0 6.62187 0.215235 6.62187 0.430471C6.62187 0.878891 7.3554 0.986482 7.43471 2.24199V4.96826C7.43471 5.56017 7.31578 5.66776 7.05802 5.66776C6.36412 5.66776 4.67893 3.35402 3.66781 0.717451C3.46951 0.197286 3.27128 0 2.75583 0H0.693898C0.0991342 0 0 0.251134 0 0.520165C0 1.00443 0.693898 3.44371 3.2316 6.67219C4.91685 8.87828 7.31578 10.0621 9.4768 10.0621C10.7853 10.0621 10.9439 9.79302 10.9439 9.34465V7.67662C10.9439 7.1385 11.0628 7.04886 11.4792 7.04886C11.7766 7.04886 12.3119 7.1923 13.5212 8.25053C14.909 9.50604 15.147 10.08 15.9202 10.08H17.9623C18.557 10.08 18.8346 9.81097 18.676 9.29081C18.4975 8.77069 17.8235 8.0174 16.9511 7.12056C16.4753 6.61839 15.7616 6.06238 15.5435 5.7933C15.2461 5.43463 15.3254 5.29113 15.5435 4.96826C15.5237 4.96826 18.0217 1.77568 18.2795 0.699502Z" fill="white" fill-opacity="0.8"/>
</svg>
